<svg width="23" height="24" viewBox="0 0 23 24" fill="none" xmlns="http://www.w3.org/2000/svg">
<path d="M11.2052 0.311157C8.98899 0.311157 6.82259 1.00202 4.97991 2.29638C3.13723 3.59074 1.70104 5.43046 0.852947 7.5829C0.00485498 9.73534 -0.217045 12.1038 0.215309 14.3888C0.647663 16.6739 1.71485 18.7728 3.28192 20.4202C4.84899 22.0676 6.84556 23.1895 9.01915 23.644C11.1927 24.0985 13.4457 23.8652 15.4932 22.9737C17.5407 22.0821 19.2907 20.5723 20.5219 18.6351C21.7532 16.698 22.4103 14.4205 22.4103 12.0908C22.4103 8.96661 21.2298 5.97042 19.1284 3.76132C17.027 1.55222 14.177 0.311157 11.2052 0.311157ZM9.60443 16.7942L5.60258 12.5872L6.87517 11.2494L9.60443 14.1185L15.5352 7.88375L16.8125 9.21821L9.60443 16.7942Z" fill="white"/>
</svg>
